<svg xmlns="http://www.w3.org/2000/svg" xmlns:xlink="http://www.w3.org/1999/xlink" width="48" height="48" class="icon" p-id="3545" t="1583305740103" version="1.1" viewBox="0 0 1024 1024"><defs><style type="text/css"/></defs><path fill="#2c2c2c" d="M888.703 847.158l-155.33-155.331c50.041-59.65 80.19-136.551 80.19-220.508 0-189.613-153.703-343.318-343.315-343.318-189.617 0-343.32 153.704-343.32 343.318s153.704 343.319 343.32 343.319c85.053 0 162.867-30.942 222.838-82.164l155.141 155.142c11.175 11.176 29.3 11.176 40.475 0 11.157-11.176 11.157-29.281 0.001-40.458zM470.25 757.416c-158.007 0-286.1-128.09-286.1-286.098 0-158.006 128.093-286.099 286.1-286.099s286.08 128.094 286.08 286.1c0 158.007-128.075 286.097-286.08 286.097z" p-id="3546"/></svg>