<svg xmlns="http://www.w3.org/2000/svg" xmlns:xlink="http://www.w3.org/1999/xlink" width="228" height="281" version="1.1" viewBox="0 0 228 281"><title>mao</title><g id="页面-1" fill="none" fill-rule="evenodd" stroke="none" stroke-width="1"><g id="mao" transform="translate(2.000000, 2.000000)"><path fill="#000" stroke="#000" stroke-width="4" d="M208,50 C122.666667,10 74.6666667,-6 64,2 C48,14 76,50 76,66 C76,82 68,82 60,106 C52,130 56,130 52,146 C48,162 0,166 0,190 C0,214 122.87565,230.238243 152,242 C171.416233,249.841171 190.0829,260.507838 208,274 L208,50 Z"/><circle id="eye" cx="138" cy="82" r="18" fill="#FFF" stroke="#FFF" stroke-width="4" opacity="0"><animate attributeName="opacity" dur="1s" repeatCount="indefinite" values="1; 1; 1; 1; 1; 1; 1; 1; 1; 1; 1; 1; 1; 1; 1; 1; 1; 1; 0; 0; 0; 0; 0; 0;"/></circle><circle id="eye" cx="110" cy="172" r="18" fill="#FFF" stroke="#FFF" stroke-width="4" opacity="0"><animate attributeName="opacity" dur="1s" repeatCount="indefinite" values="1; 1; 1; 1; 1; 1; 1; 1; 1; 1; 1; 1; 1; 1; 1; 1; 1; 1; 0; 0; 0; 0; 0; 0;"/></circle><line id="-y-" x1="120" x2="156" y1="82" y2="82" fill="#FFF" stroke="#FFF" stroke-linecap="round" stroke-linejoin="round" stroke-width="4" transform="translate(138.000000, 82.000000) rotate(105.000000) translate(-138.000000, -82.000000)"/><line id="-y-" x1="92" x2="128" y1="172" y2="172" fill="#FFF" stroke="#FFF" stroke-linecap="round" stroke-linejoin="round" stroke-width="4" transform="translate(110.000000, 172.000000) rotate(105.000000) translate(-110.000000, -172.000000)"/></g></g></svg>